# xmcd
#
# Track frame offsets: 
#        150
#        16845
#        47102
#        70296
#        98622
#        126188
#        158061
#        192852
#        221671
#        239163
#        253609
#
# Disc length: 3664 seconds
#
# Revision: 2
# Processed by: cddbd v1.5.2PL0 Copyright (c) Steve Scherf et al.
# Submitted via: ExactAudioCopy v0.99pb5
#
DISCID=980e4e0b
DTITLE=Carel Kraayenhof - Tango Royal
DYEAR=2002
DGENRE=Tango
TTITLE0=Clavel rojo
TTITLE1=Milonga del ángel
TTITLE2=Balada para un loco
TTITLE3=Máxima
TTITLE4=Milonga para Thirza
TTITLE5=Allegro marcato
TTITLE6=Moderato
TTITLE7=Presto
TTITLE8=Oblivion
TTITLE9=Maypa
TTITLE10=Adiós Nonino
EXTD=
EXTT0=
EXTT1=
EXTT2=
EXTT3=
EXTT4=
EXTT5=
EXTT6=
EXTT7=
EXTT8=
EXTT9=
EXTT10=
PLAYORDER=
